<svg xmlns="http://www.w3.org/2000/svg" width="375" viewBox="0 0 375 375" height="375" version="1.0"><defs><clipPath id="a"><path d="M 58.230469 108.84375 L 88.230469 108.84375 L 88.230469 137.34375 L 58.230469 137.34375 Z M 58.230469 108.84375"/></clipPath><clipPath id="b"><path d="M 245.15625 293.648438 L 275.15625 293.648438 L 275.15625 322.898438 L 245.15625 322.898438 Z M 245.15625 293.648438"/></clipPath></defs><g clip-path="url(#a)"><path fill="#D5A51F" d="M 82.089844 108.855469 L 76.414062 120.570312 L 88.230469 126.1875 L 75.238281 124.476562 L 73.484375 137.332031 L 71.128906 124.566406 L 58.230469 126.894531 L 69.769531 120.707031 L 63.535156 109.3125 L 73.019531 118.242188 Z M 82.089844 108.855469"/></g><g fill="#D5A51F"><g><g><path d="M 111.53125 -21.878906 C 110.566406 -22.628906 107.136719 -22.949219 89.117188 -23.484375 C 91.371094 -32.707031 93.515625 -41.71875 95.445312 -49.867188 C 98.234375 -61.449219 100.699219 -71.53125 102.09375 -77.644531 C 104.132812 -86.867188 105.3125 -93.621094 105.847656 -98.339844 C 106.277344 -103.167969 106.0625 -106.597656 103.597656 -107.457031 C 98.664062 -109.171875 92.230469 -97.804688 69.171875 -52.226562 C 64.558594 -43.113281 59.734375 -33.675781 54.90625 -24.453125 C 39.464844 -24.878906 25.203125 -25.203125 23.164062 -25.632812 C 21.984375 -25.84375 20.914062 -25.203125 20.699219 -24.023438 C 20.484375 -22.949219 21.234375 -21.878906 22.304688 -21.664062 C 24.558594 -21.125 35.28125 -20.804688 52.871094 -20.375 C 44.183594 -3.859375 35.710938 11.152344 28.957031 20.269531 C 25.417969 25.09375 22.09375 26.703125 19.089844 24.878906 C 11.152344 20.269531 5.039062 -6.972656 13.296875 -25.523438 C 20.375 -41.503906 33.996094 -40.964844 44.183594 -37.75 C 45.257812 -37.425781 46.4375 -38.070312 46.757812 -39.144531 C 47.078125 -40.214844 46.542969 -41.394531 45.363281 -41.71875 C 28.742188 -46.972656 15.980469 -41.824219 9.542969 -27.132812 C 1.394531 -8.902344 5.578125 21.878906 17.050781 28.527344 C 19.945312 30.136719 25.738281 31.636719 32.28125 22.734375 C 39.464844 13.082031 48.367188 -2.894531 57.375 -20.269531 C 58.984375 -20.160156 60.59375 -20.160156 62.199219 -20.160156 C 69.277344 -19.945312 76.894531 -19.734375 83.972656 -19.519531 C 67.347656 51.261719 67.347656 60.59375 71.210938 62.199219 C 71.636719 62.308594 71.960938 62.414062 72.28125 62.414062 C 74.425781 62.414062 76.25 59.734375 77.75 57.160156 C 78.285156 56.195312 77.964844 54.90625 77 54.265625 C 76.035156 53.726562 74.746094 54.050781 74.210938 55.015625 C 73.78125 55.660156 73.460938 56.195312 73.140625 56.625 C 73.140625 52.761719 74.320312 42.898438 79.679688 17.695312 C 82.253906 6.003906 85.152344 -6.863281 88.152344 -19.410156 C 99.09375 -19.089844 107.777344 -18.765625 109.496094 -18.339844 C 109.710938 -18.230469 110.03125 -18.125 110.351562 -18.125 C 110.996094 -18.125 111.640625 -18.445312 111.960938 -18.980469 C 112.605469 -19.945312 112.390625 -21.234375 111.53125 -21.878906 Z M 62.308594 -24.238281 C 61.34375 -24.238281 60.484375 -24.34375 59.519531 -24.34375 C 64.023438 -33.03125 68.527344 -41.824219 72.816406 -50.402344 C 83.648438 -71.746094 96.945312 -98.019531 101.878906 -102.84375 C 101.988281 -100.59375 101.664062 -94.585938 98.019531 -78.5 C 96.734375 -72.390625 94.265625 -62.414062 91.476562 -50.832031 C 89.117188 -40.964844 86.867188 -31.957031 84.9375 -23.699219 C 78.929688 -23.808594 71.421875 -24.023438 62.308594 -24.238281 Z M 62.308594 -24.238281" transform="translate(77.24 216.75)"/></g></g></g><g fill="#D5A51F"><g><g><path d="M 31.527344 -100.484375 C 30.777344 -101.453125 29.707031 -101.878906 28.632812 -101.773438 C 22.519531 -100.699219 15.980469 -77.859375 14.15625 -70.886719 C 8.792969 -50.402344 2.039062 -21.339844 -3.433594 4.71875 C -6.003906 17.050781 -8.042969 27.453125 -9.332031 34.960938 C -11.476562 47.617188 -11.152344 49.222656 -9.117188 49.761719 C -8.902344 49.867188 -8.6875 49.867188 -8.472656 49.867188 C -6.542969 49.867188 -5.578125 47.292969 -4.613281 44.503906 C -4.289062 43.433594 -4.824219 42.253906 -5.898438 41.933594 C -6.003906 41.824219 -6.113281 41.824219 -6.21875 41.824219 C -3.96875 26.382812 5.253906 -18.554688 14.691406 -56.195312 C 14.691406 -56.300781 14.800781 -56.410156 14.90625 -56.515625 C 28.847656 -78.609375 34.316406 -96.195312 31.527344 -100.484375 Z M 18.339844 -70.671875 C 22.414062 -85.792969 26.058594 -93.085938 27.992188 -96.089844 C 27.5625 -92.121094 25.203125 -83.542969 18.339844 -70.671875 Z M 18.339844 -70.671875" transform="translate(194.988 216.75)"/></g></g></g><g fill="#D5A51F"><g><g><path d="M 36.246094 -23.914062 C 35.28125 -24.558594 33.996094 -24.34375 33.351562 -23.378906 C 25.308594 -12.117188 18.765625 -5.039062 12.332031 -0.429688 C 9.117188 1.824219 6.003906 2.253906 3.96875 0.75 C 2.679688 -0.214844 -1.285156 -4.503906 3.324219 -19.519531 C 13.726562 -28.097656 19.410156 -36.246094 17.910156 -40.539062 C 17.375 -41.824219 16.085938 -42.683594 14.691406 -42.683594 C 10.402344 -42.574219 3.859375 -35.175781 -0.429688 -21.339844 C -5.683594 -4.289062 -1.394531 1.929688 1.609375 4.074219 C 3.109375 5.253906 4.824219 5.792969 6.757812 5.792969 C 9.222656 5.792969 12.011719 4.824219 14.691406 2.894531 C 21.554688 -2.039062 28.3125 -9.332031 36.675781 -21.019531 C 37.320312 -21.984375 37.105469 -23.273438 36.246094 -23.914062 Z M 13.835938 -38.179688 C 13.40625 -36.460938 11.582031 -33.03125 6.542969 -27.882812 C 9.332031 -34.101562 12.332031 -37.105469 13.835938 -38.179688 Z M 13.835938 -38.179688" transform="translate(211.288 216.75)"/></g></g></g><g fill="#D5A51F"><g><g><path d="M 27.238281 -32.816406 C 26.703125 -33.78125 25.417969 -34.101562 24.453125 -33.566406 C 19.089844 -30.242188 13.511719 -24.453125 8.257812 -17.585938 C 6.433594 -22.304688 5.148438 -26.917969 5.253906 -29.0625 C 5.253906 -30.242188 4.398438 -31.101562 3.21875 -31.207031 C 2.144531 -31.207031 1.179688 -30.351562 1.179688 -29.171875 C 1.074219 -26.167969 2.679688 -19.839844 5.363281 -13.621094 C -0.105469 -6.003906 -5.148438 2.574219 -9.222656 10.082031 C -9.757812 11.046875 -9.332031 12.332031 -8.363281 12.867188 C -8.042969 12.976562 -7.722656 13.082031 -7.398438 13.082031 C -6.648438 13.082031 -5.898438 12.761719 -5.578125 12.011719 C -1.179688 3.859375 3.21875 -3.21875 7.398438 -9.332031 C 10.1875 -3.859375 13.621094 0.75 17.050781 1.824219 C 17.585938 1.929688 18.125 2.144531 18.875 2.144531 C 20.484375 2.144531 22.414062 1.394531 24.238281 -1.179688 C 24.773438 -2.144531 24.558594 -3.433594 23.59375 -4.074219 C 22.628906 -4.71875 21.339844 -4.398438 20.804688 -3.539062 C 19.519531 -1.714844 18.765625 -1.929688 18.339844 -2.144531 C 15.65625 -2.894531 12.65625 -7.722656 10.082031 -13.082031 C 16.085938 -21.339844 21.769531 -27.132812 26.597656 -30.027344 C 27.5625 -30.5625 27.882812 -31.851562 27.238281 -32.816406 Z M 27.238281 -32.816406" transform="translate(242.495 216.75)"/></g></g></g><g fill="#967416"><g><g><path d="M 10.515625 -17.65625 L 1.8125 -10.921875 L 4 -3.09375 L 1 -0.78125 L -7.34375 -32.03125 L -7.171875 -32.171875 L 20.984375 -16.234375 L 17.484375 -13.53125 Z M 7.453125 -19.5 L -2.171875 -25.265625 L 0.875 -14.40625 Z M 7.453125 -19.5" transform="translate(98.252 95.249)"/></g></g></g><g fill="#967416"><g><g><path d="M -7.390625 -30.578125 L 6.1875 -3.046875 L 2.875 -1.421875 L -10.703125 -28.953125 Z M -7.390625 -30.578125" transform="translate(127.16 74.958)"/></g></g></g><g fill="#967416"><g><g><path d="M 9.6875 -5.703125 C 11.007812 -6.078125 12.15625 -6.90625 13.125 -8.1875 L 15.53125 -6.03125 C 14.851562 -5.226562 14.070312 -4.53125 13.1875 -3.9375 C 12.300781 -3.34375 11.398438 -2.910156 10.484375 -2.640625 C 8.734375 -2.128906 7.101562 -2.039062 5.59375 -2.375 C 4.082031 -2.71875 2.785156 -3.421875 1.703125 -4.484375 C 0.617188 -5.554688 -0.15625 -6.890625 -0.625 -8.484375 C -1.070312 -10.035156 -1.09375 -11.5625 -0.6875 -13.0625 C -0.28125 -14.570312 0.484375 -15.894531 1.609375 -17.03125 C 2.734375 -18.175781 4.09375 -18.984375 5.6875 -19.453125 C 7.738281 -20.046875 9.628906 -19.9375 11.359375 -19.125 C 13.097656 -18.320312 14.53125 -16.914062 15.65625 -14.90625 L 4.46875 -6.90625 C 5.15625 -6.25 5.945312 -5.8125 6.84375 -5.59375 C 7.75 -5.375 8.695312 -5.410156 9.6875 -5.703125 Z M 6.234375 -16.546875 C 4.796875 -16.117188 3.753906 -15.257812 3.109375 -13.96875 C 2.460938 -12.6875 2.367188 -11.257812 2.828125 -9.6875 C 2.929688 -9.3125 3.03125 -9.03125 3.125 -8.84375 L 11.3125 -14.875 C 10.675781 -15.632812 9.929688 -16.175781 9.078125 -16.5 C 8.222656 -16.832031 7.273438 -16.847656 6.234375 -16.546875 Z M 6.234375 -16.546875" transform="translate(143.385 67.216)"/></g></g></g><g fill="#967416"><g><g><path d="M 13.1875 -1.03125 L 8.34375 -6.453125 L 4.703125 -0.375 L 0.953125 -0.078125 L 6.3125 -8.75 L -0.53125 -16.40625 L 4.046875 -16.765625 L 8.796875 -11.40625 L 12.015625 -17.390625 L 15.75 -17.6875 L 10.6875 -9.296875 L 17.65625 -1.390625 Z M 13.1875 -1.03125" transform="translate(170.658 60.21)"/></g></g></g><g fill="#967416"><g><g><path d="M 22.078125 -13.53125 L 19.859375 2.703125 L 16.203125 2.203125 L 16.5625 -0.453125 C 15.882812 0.222656 14.953125 0.804688 13.765625 1.296875 C 12.585938 1.785156 11.304688 1.9375 9.921875 1.75 C 8.367188 1.539062 7.019531 1.015625 5.875 0.171875 C 4.726562 -0.660156 3.878906 -1.765625 3.328125 -3.140625 C 2.785156 -4.523438 2.632812 -6.109375 2.875 -7.890625 C 3.113281 -9.671875 3.695312 -11.164062 4.625 -12.375 C 5.5625 -13.59375 6.707031 -14.476562 8.0625 -15.03125 C 9.425781 -15.582031 10.882812 -15.753906 12.4375 -15.546875 C 13.820312 -15.359375 14.984375 -14.890625 15.921875 -14.140625 C 16.859375 -13.398438 17.570312 -12.503906 18.0625 -11.453125 L 18.703125 -13.984375 Z M 11.3125 -1.140625 C 12.644531 -0.953125 13.835938 -1.164062 14.890625 -1.78125 C 15.953125 -2.394531 16.695312 -3.332031 17.125 -4.59375 L 17.5625 -7.796875 C 17.414062 -8.992188 16.890625 -10.019531 15.984375 -10.875 C 15.085938 -11.726562 14.003906 -12.238281 12.734375 -12.40625 C 11.753906 -12.539062 10.820312 -12.429688 9.9375 -12.078125 C 9.050781 -11.722656 8.304688 -11.148438 7.703125 -10.359375 C 7.109375 -9.566406 6.738281 -8.632812 6.59375 -7.5625 C 6.445312 -6.519531 6.5625 -5.535156 6.9375 -4.609375 C 7.320312 -3.679688 7.894531 -2.898438 8.65625 -2.265625 C 9.425781 -1.640625 10.3125 -1.265625 11.3125 -1.140625 Z M 11.3125 -1.140625" transform="translate(196.581 58.722)"/></g></g></g><g fill="#967416"><g><g><path d="M 18.546875 -11.203125 C 19.972656 -10.660156 21 -9.785156 21.625 -8.578125 C 22.25 -7.367188 22.3125 -6.082031 21.8125 -4.71875 L 17.53125 6.625 L 14.046875 5.3125 L 17.890625 -4.84375 C 18.160156 -5.71875 18.148438 -6.492188 17.859375 -7.171875 C 17.578125 -7.847656 16.976562 -8.375 16.0625 -8.75 C 14.707031 -9.257812 13.378906 -9.140625 12.078125 -8.390625 C 10.773438 -7.640625 9.804688 -6.425781 9.171875 -4.75 L 6.453125 2.4375 L 3 1.125 L 8.796875 -14.203125 L 11.90625 -13.015625 L 11.015625 -9.984375 C 11.972656 -10.890625 13.113281 -11.453125 14.4375 -11.671875 C 15.757812 -11.890625 17.128906 -11.734375 18.546875 -11.203125 Z M 18.546875 -11.203125" transform="translate(226.785 63.757)"/></g></g></g><g fill="#967416"><g><g><path d="M 33.9375 -14.28125 L 16.90625 11.265625 L 13.8125 9.203125 L 15.25 7.0625 C 14.0625 7.394531 12.84375 7.460938 11.59375 7.265625 C 10.351562 7.066406 9.160156 6.585938 8.015625 5.828125 C 6.742188 4.972656 5.796875 3.894531 5.171875 2.59375 C 4.546875 1.289062 4.3125 -0.109375 4.46875 -1.609375 C 4.632812 -3.109375 5.203125 -4.582031 6.171875 -6.03125 C 7.148438 -7.507812 8.304688 -8.582031 9.640625 -9.25 C 10.984375 -9.925781 12.378906 -10.191406 13.828125 -10.046875 C 15.285156 -9.898438 16.703125 -9.375 18.078125 -8.46875 C 19.109375 -7.78125 19.957031 -6.90625 20.625 -5.84375 C 21.300781 -4.78125 21.664062 -3.6875 21.71875 -2.5625 L 30.875 -16.3125 Z M 10.71875 3.828125 C 11.90625 4.617188 13.125 4.96875 14.375 4.875 C 15.625 4.789062 16.734375 4.285156 17.703125 3.359375 L 19.40625 0.8125 C 19.8125 -0.351562 19.789062 -1.535156 19.34375 -2.734375 C 18.90625 -3.929688 18.132812 -4.898438 17.03125 -5.640625 C 16.195312 -6.191406 15.296875 -6.5 14.328125 -6.5625 C 13.359375 -6.625 12.421875 -6.4375 11.515625 -6 C 10.617188 -5.5625 9.875 -4.894531 9.28125 -4 C 8.695312 -3.125 8.375 -2.179688 8.3125 -1.171875 C 8.25 -0.171875 8.425781 0.769531 8.84375 1.65625 C 9.257812 2.550781 9.882812 3.273438 10.71875 3.828125 Z M 10.71875 3.828125" transform="translate(253.9 74.806)"/></g></g></g><g fill="#967416"><g><g><path d="M 9.5 5.984375 C 10.445312 6.984375 11.71875 7.625 13.3125 7.90625 L 12.5 11.015625 C 11.488281 10.785156 10.507812 10.410156 9.5625 9.890625 C 8.625 9.378906 7.828125 8.78125 7.171875 8.09375 C 5.910156 6.78125 5.082031 5.367188 4.6875 3.859375 C 4.289062 2.359375 4.316406 0.890625 4.765625 -0.546875 C 5.222656 -1.992188 6.050781 -3.289062 7.25 -4.4375 C 8.425781 -5.539062 9.769531 -6.257812 11.28125 -6.59375 C 12.800781 -6.9375 14.328125 -6.867188 15.859375 -6.390625 C 17.390625 -5.921875 18.726562 -5.082031 19.875 -3.875 C 21.351562 -2.320312 22.132812 -0.59375 22.21875 1.3125 C 22.300781 3.21875 21.707031 5.140625 20.4375 7.078125 L 8.1875 0.78125 C 7.925781 1.707031 7.898438 2.617188 8.109375 3.515625 C 8.328125 4.410156 8.789062 5.234375 9.5 5.984375 Z M 17.5625 -2.0625 C 16.53125 -3.144531 15.289062 -3.675781 13.84375 -3.65625 C 12.40625 -3.644531 11.09375 -3.078125 9.90625 -1.953125 C 9.613281 -1.671875 9.40625 -1.445312 9.28125 -1.28125 L 18.40625 3.203125 C 18.789062 2.296875 18.929688 1.382812 18.828125 0.46875 C 18.734375 -0.4375 18.3125 -1.28125 17.5625 -2.0625 Z M 17.5625 -2.0625" transform="translate(279.036 92.754)"/></g></g></g><g fill="#967416"><g><g><path d="M 14.1875 -1.03125 C 15.175781 -1.15625 16.171875 -1.070312 17.171875 -0.78125 C 18.171875 -0.488281 19.0625 -0.078125 19.84375 0.453125 C 20.625 0.984375 21.203125 1.519531 21.578125 2.0625 L 18.375 3.90625 C 17.78125 2.875 17 2.09375 16.03125 1.5625 C 15.070312 1.03125 14.050781 0.789062 12.96875 0.84375 C 11.894531 0.894531 10.910156 1.207031 10.015625 1.78125 L 3.703125 5.8125 L 1.71875 2.703125 L 15.53125 -6.125 L 17.3125 -3.34375 Z M 14.1875 -1.03125" transform="translate(297.771 113.92)"/></g></g></g><g fill="#967416"><g><g><path d="M 16.9375 4.671875 L 17.765625 4.96875 L 32.046875 14.078125 L 33.03125 18.921875 L 18.640625 9.734375 L 5.078125 25.25 L 4.125 20.46875 L 15.6875 7.46875 L 12.90625 5.5625 L 1.59375 7.890625 L 0.8125 4.046875 L 28.890625 -1.609375 L 29.671875 2.234375 L 18.359375 4.515625 Z M 16.9375 4.671875" transform="translate(317.323 152.096)"/></g></g></g><g fill="#967416"><g><g><path d="M -0.515625 7.84375 C -0.492188 6.625 -0.257812 5.46875 0.1875 4.375 C 0.632812 3.289062 1.273438 2.414062 2.109375 1.75 L 4.21875 3.359375 C 3.570312 4.015625 3.066406 4.703125 2.703125 5.421875 C 2.347656 6.140625 2.160156 6.859375 2.140625 7.578125 C 2.128906 8.441406 2.289062 9.15625 2.625 9.71875 C 2.957031 10.28125 3.476562 10.570312 4.1875 10.59375 C 4.75 10.601562 5.203125 10.4375 5.546875 10.09375 C 5.898438 9.757812 6.160156 9.375 6.328125 8.9375 C 6.492188 8.507812 6.742188 7.78125 7.078125 6.75 C 8.035156 3.976562 9.660156 2.613281 11.953125 2.65625 C 13.328125 2.6875 14.492188 3.21875 15.453125 4.25 C 16.410156 5.289062 16.875 6.722656 16.84375 8.546875 C 16.8125 9.703125 16.640625 10.726562 16.328125 11.625 C 16.023438 12.519531 15.546875 13.335938 14.890625 14.078125 L 12.65625 12.5625 C 13.125 12.15625 13.492188 11.628906 13.765625 10.984375 C 14.046875 10.347656 14.207031 9.738281 14.25 9.15625 C 14.257812 8.414062 14.085938 7.773438 13.734375 7.234375 C 13.390625 6.703125 12.914062 6.429688 12.3125 6.421875 C 11.8125 6.410156 11.390625 6.570312 11.046875 6.90625 C 10.710938 7.25 10.46875 7.601562 10.3125 7.96875 C 10.164062 8.332031 9.910156 9.050781 9.546875 10.125 C 9.078125 11.476562 8.476562 12.519531 7.75 13.25 C 7.019531 13.988281 6.046875 14.347656 4.828125 14.328125 C 3.242188 14.285156 1.945312 13.703125 0.9375 12.578125 C -0.0703125 11.453125 -0.554688 9.875 -0.515625 7.84375 Z M -0.515625 7.84375" transform="translate(322.726 185.996)"/></g></g></g><g fill="#967416"><g><g><path d="M 11.484375 23.203125 L -4.484375 19.53125 L -3.65625 15.9375 L -1.03125 16.53125 C -1.65625 15.800781 -2.15625 14.820312 -2.53125 13.59375 C -2.90625 12.363281 -2.9375 11.070312 -2.625 9.71875 C -2.28125 8.1875 -1.640625 6.890625 -0.703125 5.828125 C 0.222656 4.765625 1.394531 4.019531 2.8125 3.59375 C 4.238281 3.175781 5.832031 3.171875 7.59375 3.578125 C 9.332031 3.972656 10.769531 4.6875 11.90625 5.71875 C 13.039062 6.75 13.816406 7.96875 14.234375 9.375 C 14.660156 10.789062 14.703125 12.257812 14.359375 13.78125 C 14.046875 15.144531 13.472656 16.257812 12.640625 17.125 C 11.816406 17.988281 10.863281 18.617188 9.78125 19.015625 L 12.25 19.890625 Z M 0.125 11.359375 C -0.175781 12.679688 -0.0703125 13.894531 0.4375 15 C 0.945312 16.101562 1.8125 16.925781 3.03125 17.46875 L 6.1875 18.203125 C 7.382812 18.160156 8.445312 17.726562 9.375 16.90625 C 10.3125 16.09375 10.921875 15.054688 11.203125 13.796875 C 11.421875 12.847656 11.394531 11.910156 11.125 10.984375 C 10.851562 10.066406 10.351562 9.269531 9.625 8.59375 C 8.894531 7.925781 8 7.472656 6.9375 7.234375 C 5.914062 7.003906 4.925781 7.035156 3.96875 7.328125 C 3.007812 7.628906 2.179688 8.128906 1.484375 8.828125 C 0.796875 9.535156 0.34375 10.378906 0.125 11.359375 Z M 0.125 11.359375" transform="translate(321.836 209.73)"/></g></g></g><g fill="#967416"><g><g><path d="M 12.28125 12.84375 L -2.75 6.3125 L -1.28125 2.9375 L 13.75 9.46875 Z M 19.515625 11.828125 C 20.046875 12.054688 20.40625 12.457031 20.59375 13.03125 C 20.78125 13.601562 20.753906 14.15625 20.515625 14.6875 C 20.285156 15.21875 19.898438 15.597656 19.359375 15.828125 C 18.828125 16.066406 18.296875 16.070312 17.765625 15.84375 C 17.234375 15.613281 16.875 15.222656 16.6875 14.671875 C 16.5 14.117188 16.519531 13.578125 16.75 13.046875 C 16.988281 12.515625 17.375 12.117188 17.90625 11.859375 C 18.445312 11.609375 18.984375 11.597656 19.515625 11.828125 Z M 19.515625 11.828125" transform="translate(313.62 239.595)"/></g></g></g><g fill="#967416"><g><g><path d="M 6.9375 12.421875 C 7.46875 13.253906 7.8125 14.1875 7.96875 15.21875 C 8.132812 16.25 8.140625 17.226562 7.984375 18.15625 C 7.828125 19.09375 7.585938 19.847656 7.265625 20.421875 L 4.25 18.3125 C 4.925781 17.332031 5.300781 16.296875 5.375 15.203125 C 5.445312 14.109375 5.234375 13.078125 4.734375 12.109375 C 4.234375 11.148438 3.53125 10.390625 2.625 9.828125 L -3.6875 5.8125 L -1.71875 2.703125 L 12.125 11.484375 L 10.359375 14.265625 Z M 6.9375 12.421875" transform="translate(305.98 256.06)"/></g></g></g><g fill="#967416"><g><g><path d="M 7.765625 15.984375 L -4.546875 5.171875 L -2.109375 2.40625 L 10.203125 13.21875 Z M 14.96875 17.21875 C 15.40625 17.601562 15.625 18.09375 15.625 18.6875 C 15.632812 19.289062 15.445312 19.8125 15.0625 20.25 C 14.675781 20.6875 14.1875 20.9375 13.59375 21 C 13.007812 21.0625 12.5 20.898438 12.0625 20.515625 C 11.632812 20.128906 11.414062 19.644531 11.40625 19.0625 C 11.394531 18.476562 11.582031 17.96875 11.96875 17.53125 C 12.351562 17.09375 12.84375 16.832031 13.4375 16.75 C 14.03125 16.675781 14.539062 16.832031 14.96875 17.21875 Z M 14.96875 17.21875" transform="translate(293.023 274.971)"/></g></g></g><g clip-path="url(#b)"><path fill="#D5A51F" d="M 269.019531 293.664062 L 263.34375 305.683594 L 275.15625 311.449219 L 262.164062 309.691406 L 260.410156 322.882812 L 258.058594 309.785156 L 245.15625 312.175781 L 256.695312 305.824219 L 250.464844 294.132812 L 259.949219 303.292969 Z M 269.019531 293.664062"/></g></svg>